<svg width="70" height="70" viewBox="0 0 70 70" fill="none" xmlns="http://www.w3.org/2000/svg">
<path d="M58.352 10.5H11.648C10.405 10.5111 9.21715 11.0152 8.3456 11.9017C7.47406 12.7881 6.99008 13.9843 7.00003 15.2273V41.2673C6.99592 42.1409 7.23348 42.9986 7.68646 43.7456C8.13943 44.4926 8.79016 45.0998 9.56669 45.5L31.8734 58.7533C32.841 59.2466 33.9116 59.5038 34.9977 59.5038C36.0838 59.5038 37.1544 59.2466 38.122 58.7533L60.4287 45.5C61.2054 45.1008 61.8566 44.4946 62.3104 43.7485C62.7642 43.0023 63.0028 42.1453 63 41.272V15.232C63.0056 14.6161 62.8897 14.0051 62.6591 13.434C62.4286 12.8629 62.0877 12.3427 61.6561 11.9033C61.2245 11.4639 60.7106 11.1138 60.1436 10.873C59.5767 10.6322 58.9679 10.5055 58.352 10.5V10.5ZM49 36.1667H39.6667V45.5H30.3334V36.1667H21V26.8333H30.3334V17.5H39.6667V26.8333H49V36.1667Z" fill="#7BBB89"/>
</svg>
    